<svg width="19" height="16" viewBox="0 0 19 16" fill="none" xmlns="http://www.w3.org/2000/svg">
<mask id="path-1-inside-1" fill="white">
<path fill-rule="evenodd" clip-rule="evenodd" d="M1.389 1.37129C-0.462998 3.19967 -0.462999 6.16407 1.38899 7.99245L9.49992 16L9.51888 15.9813L9.53789 16L17.611 8.02983C19.463 6.20144 19.463 3.23704 17.611 1.40866C15.759 -0.419723 12.7563 -0.419723 10.9043 1.40866L9.51893 2.77642L8.09566 1.37129C6.24366 -0.457096 3.24099 -0.457096 1.389 1.37129Z"/>
</mask>
<path d="M1.38899 7.99245L2.09155 7.28083L1.38899 7.99245ZM1.389 1.37129L0.686439 0.65966L1.389 1.37129ZM9.49992 16L8.79736 16.7116L9.49991 17.4052L10.2025 16.7116L9.49992 16ZM9.51888 15.9813L10.2214 15.2696L9.51889 14.576L8.81633 15.2696L9.51888 15.9813ZM9.53789 16L8.83533 16.7117L9.53789 17.4053L10.2404 16.7117L9.53789 16ZM17.611 8.02983L18.3136 8.74145L18.3136 8.74145L17.611 8.02983ZM17.611 1.40866L16.9084 2.12029L17.611 1.40866ZM10.9043 1.40866L11.6069 2.12029L10.9043 1.40866ZM9.51893 2.77642L8.81637 3.48804L9.51893 4.18164L10.2215 3.48804L9.51893 2.77642ZM8.09566 1.37129L8.79821 0.65966V0.65966L8.09566 1.37129ZM2.09155 7.28083C0.636149 5.84398 0.63615 3.51977 2.09155 2.08292L0.686439 0.65966C-1.56215 2.87958 -1.56215 6.48416 0.686438 8.70408L2.09155 7.28083ZM10.2025 15.2884L2.09155 7.28083L0.686438 8.70408L8.79736 16.7116L10.2025 15.2884ZM8.81633 15.2696L8.79737 15.2883L10.2025 16.7116L10.2214 16.6929L8.81633 15.2696ZM10.2404 15.2884L10.2214 15.2696L8.81632 16.6929L8.83533 16.7117L10.2404 15.2884ZM16.9085 7.3182L8.83533 15.2884L10.2404 16.7117L18.3136 8.74145L16.9085 7.3182ZM16.9084 2.12029C18.3639 3.55714 18.3639 5.88135 16.9085 7.3182L18.3136 8.74145C20.5621 6.52153 20.5621 2.91695 18.3136 0.697033L16.9084 2.12029ZM11.6069 2.12029C13.0694 0.676401 15.4459 0.676401 16.9084 2.12029L18.3136 0.697033C16.0721 -1.51585 12.4432 -1.51585 10.2018 0.697033L11.6069 2.12029ZM10.2215 3.48804L11.6069 2.12029L10.2018 0.697033L8.81637 2.06479L10.2215 3.48804ZM7.3931 2.08292L8.81637 3.48804L10.2215 2.06479L8.79821 0.65966L7.3931 2.08292ZM2.09155 2.08292C3.55408 0.639028 5.93057 0.639028 7.3931 2.08292L8.79821 0.65966C6.55676 -1.55322 2.92789 -1.55322 0.686439 0.65966L2.09155 2.08292Z" fill="#0F0F0F" mask="url(#path-1-inside-1)"/>
</svg>
